<?xml version="1.0" encoding="UTF-8" standalone="no"?>
<svg
   width="930"
   height="300"
   viewBox="0 0 930 300"
   version="1.1"
   id="svg7"
   xmlns="http://www.w3.org/2000/svg"
   xmlns:svg="http://www.w3.org/2000/svg">
  <defs
     id="defs7" />
  <g
     transform="translate(32 22) scale(1)"
     id="g7">
    <g
       id="cellium-symbol">
      <rect
         x="8"
         y="84"
         width="24"
         height="88"
         rx="8"
         fill="#9FB08E"
         id="rect1" />
      <rect
         x="42"
         y="62"
         width="26"
         height="132"
         rx="8"
         fill="#9FB08E"
         id="rect2" />
      <rect
         x="78"
         y="38"
         width="28"
         height="180"
         rx="8"
         fill="#9FB08E"
         id="rect3" />
      <rect
         x="116"
         y="20"
         width="28"
         height="216"
         rx="8"
         fill="#9FB08E"
         id="rect4" />
      <rect
         x="150"
         y="38"
         width="28"
         height="180"
         rx="8"
         fill="#9FB08E"
         id="rect5" />
      <rect
         x="186"
         y="62"
         width="26"
         height="132"
         rx="8"
         fill="#9FB08E"
         id="rect6" />
      <rect
         x="220"
         y="84"
         width="24"
         height="88"
         rx="8"
         fill="#9FB08E"
         id="rect7" />
    </g>
  </g>
  <path
     d="m 406.89844,205.94531 c 26.34277,0 46.76855,-16.29199 50.90234,-41.98633 h -18.2373 c -3.80957,16.37305 -16.12989,25.53223 -32.50293,25.53223 -23.83008,0 -38.41993,-18.48047 -38.41993,-45.7959 0,-27.47754 14.58985,-45.958005 38.41993,-45.958005 16.4541,0 28.85547,9.240235 32.42187,25.694335 h 18.31836 c -4.21484,-25.77539 -24.55957,-42.148437 -50.90234,-42.148437 -33.39453,0 -56.33301,25.208007 -56.33301,62.412107 0,36.96094 23.01953,62.25 56.33301,62.25 z m 103.42578,0 c 19.37207,0 34.61035,-11.42871 37.77148,-27.96386 h -16.4541 c -2.43164,8.10546 -9.88867,13.69824 -21.07422,13.69824 -14.99511,0 -23.58691,-10.45606 -24.15429,-25.85645 h 62.97949 v -4.62012 c 0,-26.42382 -15.72461,-44.74218 -39.95996,-44.74218 -23.34375,0 -39.87891,18.80468 -39.87891,44.90429 0,25.85645 15.40039,44.58008 40.77051,44.58008 z M 486.5752,152.85449 c 1.45898,-13.61719 10.13183,-22.12793 23.01953,-22.12793 12.96875,0 21.72265,8.51074 23.10058,22.12793 z M 581.24707,83.228516 H 564.14453 V 204 h 17.10254 z m 36.39355,0 H 600.53809 V 204 h 17.10253 z M 636.93164,204 h 17.10254 v -85.59375 h -17.10254 z m 8.51074,-100.3457 c 6.0791,0 10.86133,-4.62012 10.86133,-10.456058 0,-5.916992 -4.78223,-10.537109 -10.86133,-10.537109 -6.0791,0 -10.78027,4.620117 -10.78027,10.537109 0,5.835938 4.70117,10.456058 10.78027,10.456058 z m 58.84571,102.04785 c 11.34765,0 20.0205,-4.86328 25.85644,-14.58985 V 204 h 16.77832 v -85.59375 h -17.10254 v 49.28125 c 0,15.88672 -8.99707,22.69531 -20.58789,22.69531 -11.91504,0 -18.80469,-7.05176 -18.80469,-20.75 V 118.40625 H 673.3252 v 53.33398 c 0,22.3711 13.37402,33.96192 30.96289,33.96192 z M 766.21387,204 h 17.10254 v -51.63184 c 0,-13.53613 8.91601,-20.66894 18.88574,-20.66894 9.72656,0 16.77832,6.48437 16.77832,16.29199 V 204 h 16.85937 v -53.49609 c 0,-10.94239 7.05176,-18.80469 18.48047,-18.80469 9.24024,0 17.1836,5.1875 17.1836,17.42676 V 204 h 17.18359 v -56.33301 c 0,-20.58789 -12.64453,-30.96289 -28.53125,-30.96289 -12.64453,0 -22.5332,6.56543 -27.15332,15.80567 -3.56641,-9.15918 -12.96875,-15.80567 -24.64063,-15.80567 -10.61816,0 -20.26367,5.51172 -25.53222,16.04883 v -14.34668 h -16.61621 z"
     id="cellium-wordmark"
     style="font-weight:500;font-size:166px;font-family:'Inter Display';letter-spacing:0;fill:#9fb08e"
     aria-label="Cellium" />
</svg>
